<svg xmlns="http://www.w3.org/2000/svg"
     width="64" height="64" viewBox="0 0 16 16"
     fill="none" stroke="#FFFFFF"
     stroke-width="1" stroke-linecap="round" stroke-linejoin="round">

    <path d="
        M8 1
        c-2.7 0-4.8 1.7-4.8 4.1
        a3.6 3.6 0 0 0 .3 1.3
        C2.5 7 1.8 7.9 1.8 9
        c0 2.1 1.8 3.8 4 3.8
        h4.4
        c2.2 0 4-1.7 4-3.8
        c0-1.1-.7-2-1.7-2.6
        a3.5 3.5 0 0 0 .3-1.3
        C12.8 2.7 10.7 1 8 1
        z"
          fill="#4CAF50" stroke="#2E7D32"/>

    <rect x="7" y="13" width="2" height="2" rx="0.4"
          fill="#8B4513" stroke="#8B4513"/>

    <line x1="4.5" y1="15" x2="11.5" y2="15" stroke="#5D4037"/>
</svg>
